<?xml version="1.0" encoding="UTF-8" standalone="no"?>
<!-- Created with Inkscape (http://www.inkscape.org/) -->

<svg
   xmlns:dc="http://purl.org/dc/elements/1.1/"
   xmlns:cc="http://creativecommons.org/ns#"
   xmlns:rdf="http://www.w3.org/1999/02/22-rdf-syntax-ns#"
   xmlns:svg="http://www.w3.org/2000/svg"
   xmlns="http://www.w3.org/2000/svg"
   xmlns:sodipodi="http://sodipodi.sourceforge.net/DTD/sodipodi-0.dtd"
   xmlns:inkscape="http://www.inkscape.org/namespaces/inkscape"
   width="210mm"
   height="297mm"
   viewBox="0 0 744.09448819 1052.3622047"
   id="svg2"
   version="1.1"
   inkscape:version="0.91 r13725"
   sodipodi:docname="1.svg">
  <defs
     id="defs4" />
  <sodipodi:namedview
     id="base"
     pagecolor="#ffffff"
     bordercolor="#666666"
     borderopacity="1.0"
     inkscape:pageopacity="0.0"
     inkscape:pageshadow="2"
     inkscape:zoom="0.49497475"
     inkscape:cx="316.69339"
     inkscape:cy="513.77881"
     inkscape:document-units="px"
     inkscape:current-layer="layer1"
     showgrid="false"
     inkscape:window-width="1920"
     inkscape:window-height="1149"
     inkscape:window-x="0"
     inkscape:window-y="0"
     inkscape:window-maximized="1"
     showguides="false" />
  <metadata
     id="metadata7">
    <rdf:RDF>
      <cc:Work
         rdf:about="">
        <dc:format>image/svg+xml</dc:format>
        <dc:type
           rdf:resource="http://purl.org/dc/dcmitype/StillImage" />
        <dc:title></dc:title>
      </cc:Work>
    </rdf:RDF>
  </metadata>
  <g
     inkscape:label="Layer 1"
     inkscape:groupmode="layer"
     id="layer1">
    <path
       style="fill:#ff0000;fill-rule:evenodd;stroke:#000000;stroke-width:0.29585519px;stroke-linecap:butt;stroke-linejoin:miter;stroke-opacity:1"
       d="m 444.27476,262.1819 c -54.74635,1.23183 -106.36722,34.59003 -132.98242,81.96484 -31.52124,52.98089 -33.18745,123.07275 -1.86748,176.53379 24.05444,42.38362 67.14996,74.67555 115.82211,81.70787 54.18111,8.28231 111.99749,-14.30128 145.81813,-57.52969 39.65882,-48.60511 50.84861,-119.05755 26.97714,-177.24369 -17.53099,-44.62907 -54.30576,-82.29167 -100.29645,-97.22513 -17.16364,-5.83321 -35.34242,-8.68149 -53.47103,-8.20799 z"
       id="path3336"
       inkscape:connector-curvature="0" />
    <flowRoot
       xml:space="preserve"
       id="flowRoot3338"
       style="font-style:normal;font-weight:normal;font-size:40px;line-height:125%;font-family:sans-serif;letter-spacing:0px;word-spacing:0px;fill:#000000;fill-opacity:1;stroke:none;stroke-width:1px;stroke-linecap:butt;stroke-linejoin:miter;stroke-opacity:1"
       transform="translate(125.25891,-22.223356)"><flowRegion
         id="flowRegion3340"><rect
           id="rect3342"
           width="347.49246"
           height="88.893425"
           x="262.63965"
           y="432.12854" /></flowRegion><flowPara
         id="flowPara3344">Server</flowPara></flowRoot>    <path
       style="fill:#800000;fill-rule:evenodd;stroke:#000000;stroke-width:1px;stroke-linecap:butt;stroke-linejoin:miter;stroke-opacity:1"
       d="m 443.49546,68.543226 c -49.74557,0.851476 -97.33106,35.894384 -111.49835,83.832824 -14.09123,42.95288 -4.69168,92.62392 24.06355,127.49752 24.75703,32.09295 67.68094,48.17689 107.52482,41.87635 36.94292,-5.22447 70.6784,-28.50748 88.89339,-61.04336 20.20482,-34.95926 22.99047,-79.46713 6.66789,-116.48083 C 545.583,112.35346 518.52033,86.220426 485.52987,75.175164 472.06994,70.422285 457.76672,68.154583 443.49546,68.543226 Z"
       id="path3346"
       inkscape:connector-curvature="0" />
    <flowRoot
       xml:space="preserve"
       id="flowRoot3350"
       style="font-style:normal;font-weight:normal;font-size:40px;line-height:125%;font-family:sans-serif;letter-spacing:0px;word-spacing:0px;fill:#000000;fill-opacity:1;stroke:none;stroke-width:1px;stroke-linecap:butt;stroke-linejoin:miter;stroke-opacity:1"><flowRegion
         id="flowRegion3352"><rect
           id="rect3354"
           width="210.11172"
           height="44.446712"
           x="282.84271"
           y="250.30109" /></flowRegion><flowPara
         id="flowPara3356">Dataddd</flowPara></flowRoot>    <text
       xml:space="preserve"
       style="font-style:normal;font-weight:normal;font-size:40px;line-height:125%;font-family:sans-serif;letter-spacing:0px;word-spacing:0px;fill:#000000;fill-opacity:1;stroke:none;stroke-width:1px;stroke-linecap:butt;stroke-linejoin:miter;stroke-opacity:1"
       x="349.51279"
       y="209.89499"
       id="text3362"
       sodipodi:linespacing="125%"><tspan
         sodipodi:role="line"
         id="tspan3364"
         x="349.51279"
         y="209.89499">Database</tspan></text>
    <path
       sodipodi:type="star"
       style="fill:#ffe680"
       id="path3368"
       sodipodi:sides="5"
       sodipodi:cx="379.81735"
       sodipodi:cy="727.09308"
       sodipodi:r1="234.39021"
       sodipodi:r2="117.19511"
       sodipodi:arg1="2.1970578"
       sodipodi:arg2="2.8253763"
       inkscape:flatsided="false"
       inkscape:rounded="0"
       inkscape:randomized="0"
       d="M 242.4366,917.00175 268.43292,763.53756 156.75049,655.12123 310.7369,632.42215 379.3352,492.70336 448.50772,632.13874 602.58623,654.20412 491.35078,763.079 l 26.62746,153.35594 -137.91981,-72.147 z"
       inkscape:transform-center-x="0.11929102"
       inkscape:transform-center-y="-17.475081"
       transform="matrix(0.80061396,0,0,0.78573162,150.45186,172.24082)" />
    <text
       xml:space="preserve"
       style="font-style:normal;font-weight:normal;font-size:40px;line-height:125%;font-family:sans-serif;letter-spacing:0px;word-spacing:0px;fill:#000000;fill-opacity:1;stroke:none;stroke-width:1px;stroke-linecap:butt;stroke-linejoin:miter;stroke-opacity:1"
       x="398.00012"
       y="751.33673"
       id="text3370"
       sodipodi:linespacing="125%"><tspan
         sodipodi:role="line"
         id="tspan3372"
         x="398.00012"
         y="751.33673">Client</tspan></text>
    <circle
       style="fill:#ccff00"
       id="path3422"
       cx="334.36047"
       cy="928.1134"
       r="65.659912" />
    <circle
       style="fill:#ccff00"
       id="path3422-3"
       cx="565.68542"
       cy="925.08295"
       r="65.659912" />
    <circle
       style="fill:#ccff00"
       id="path3422-6"
       cx="244.45691"
       cy="686.68701"
       r="65.659912" />
    <text
       xml:space="preserve"
       style="font-style:normal;font-weight:normal;font-size:40px;line-height:125%;font-family:sans-serif;letter-spacing:0px;word-spacing:0px;fill:#000000;fill-opacity:1;stroke:none;stroke-width:1px;stroke-linecap:butt;stroke-linejoin:miter;stroke-opacity:1"
       x="185.86809"
       y="700.8291"
       id="text3457"
       sodipodi:linespacing="125%"><tspan
         sodipodi:role="line"
         id="tspan3459"
         x="185.86809"
         y="700.8291">HTML</tspan></text>
    <text
       xml:space="preserve"
       style="font-style:normal;font-weight:normal;font-size:40px;line-height:125%;font-family:sans-serif;letter-spacing:0px;word-spacing:0px;fill:#000000;fill-opacity:1;stroke:none;stroke-width:1px;stroke-linecap:butt;stroke-linejoin:miter;stroke-opacity:1"
       x="294.96454"
       y="941.24536"
       id="text3465"
       sodipodi:linespacing="125%"><tspan
         sodipodi:role="line"
         id="tspan3467"
         x="294.96454"
         y="941.24536">CSS</tspan></text>
    <text
       xml:space="preserve"
       style="font-style:normal;font-weight:normal;font-size:40px;line-height:125%;font-family:sans-serif;letter-spacing:0px;word-spacing:0px;fill:#000000;fill-opacity:1;stroke:none;stroke-width:1px;stroke-linecap:butt;stroke-linejoin:miter;stroke-opacity:1"
       x="549.52295"
       y="939.2251"
       id="text3469"
       sodipodi:linespacing="125%"><tspan
         sodipodi:role="line"
         id="tspan3471"
         x="549.52295"
         y="939.2251">JS</tspan></text>
    <ellipse
       style="fill:#800000;fill-rule:evenodd;stroke:#000000;stroke-width:1px;stroke-linecap:butt;stroke-linejoin:miter;stroke-opacity:1"
       id="path3346-5"
       cx="187.88835"
       cy="430.10822"
       rx="123.23861"
       ry="127.27922" />
    <text
       xml:space="preserve"
       style="font-style:normal;font-weight:normal;font-size:40px;line-height:125%;font-family:sans-serif;letter-spacing:0px;word-spacing:0px;fill:#000000;fill-opacity:1;stroke:none;stroke-width:1px;stroke-linecap:butt;stroke-linejoin:miter;stroke-opacity:1"
       x="141.42136"
       y="446.27066"
       id="text3496"
       sodipodi:linespacing="125%"><tspan
         sodipodi:role="line"
         id="tspan3498"
         x="141.42136"
         y="446.27066">PHP</tspan></text>
    <path
       style="fill:#ff7f2a"
       id="path3502"
       d="M 481.05078 31.707031 C 449.82751 33.328464 421.3849 47.630582 393.2322 59.877816 C 350.6186 79.044733 308.79246 102.3798 276.02365 136.22545 C 261.31303 158.82923 264.56354 189.98413 280.31321 211.19438 C 290.63058 226.79269 302.82419 242.79042 304.05145 262.17527 C 305.06669 270.48113 302.00211 281.25822 292.93808 283.57119 C 280.55234 285.9998 269.63119 278.08075 259.214 272.68124 C 236.7687 260.43414 217.5178 243.2785 196.05949 229.57153 C 179.64073 223.69819 162.30859 229.39794 145.49415 229.39547 C 119.94408 230.747 93.099623 230.65 69.756502 242.59612 C 42.761562 256.03911 25.375364 285.21067 23.977261 315.04437 C 16.124721 384.48385 16.096351 454.92059 25.153625 524.23996 C 28.89498 543.32622 36.156306 563.12304 51.685454 575.74965 C 67.012082 585.04008 85.556279 583.98868 102.65316 586.76581 C 160.43543 592.82904 219.42138 591.82911 275.83276 607.40612 C 300.32121 614.08346 317.07901 635.6028 340.94435 643.57371 C 362.33938 649.40105 384.6506 645.58665 406.46866 646.70458 C 455.59135 646.75039 505.67536 646.31852 553.08612 631.89175 C 582.65561 621.7955 606.04989 600.13936 628.8444 579.63808 C 650.2833 560.33414 668.64965 535.69914 673.96917 506.78043 C 680.6546 474.03638 673.67305 440.36989 663.41797 409.14101 C 649.82505 366.02836 629.1563 324.94427 621.84197 280.00944 C 618.50938 256.39588 623.37733 232.43792 631.60092 210.31084 C 639.92522 184.04662 646.91088 156.48295 643.84059 128.71984 C 642.68999 106.03318 636.05514 82.173814 619.21319 66.044506 C 601.13463 50.098673 577.65991 41.96238 554.46154 36.907703 C 532.0985 33.483707 509.4081 33.394559 486.89657 31.610795 C 484.94662 31.574693 482.99886 31.621366 481.05078 31.707031 z M 467.48242 48.023438 C 498.19804 49.891453 530.10734 49.159254 558.98489 61.377774 C 577.08228 68.877452 595.86026 79.004356 605.58054 96.82552 C 618.11924 122.59501 618.1828 152.17427 615.57969 180.10707 C 612.97416 206.48392 603.97772 231.71679 600.88672 258.00391 C 598.86091 275.61319 600.32397 293.57224 605.32794 310.58275 C 614.43471 347.53223 626.68729 383.59925 637.26001 420.13368 C 645.86991 446.48961 653.06501 474.28571 649.59115 502.22255 C 646.81812 533.73243 631.48577 563.64286 608.33017 585.06292 C 594.2433 599.04523 578.51068 612.49001 559.4176 618.89812 C 537.12779 625.31098 513.70929 624.98853 490.87795 628.0513 C 450.0748 630.85794 409.03531 630.05155 368.32139 626.38484 C 351.55175 623.39866 337.5428 612.99519 324.3533 602.86757 C 310.63131 593.25801 294.81727 586.23475 278.02154 584.60993 C 239.02056 578.09325 199.30593 579.84206 160.02805 576.32286 C 131.27336 574.43185 101.84814 571.93526 74.989746 560.7395 C 61.513069 552.53836 56.096768 536.69092 52.036714 522.30286 C 37.303527 475.55372 37.359246 425.98763 37.321349 377.46612 C 37.084756 340.64771 39.995922 302.55155 56.304356 268.93746 C 61.885967 257.26512 72.851033 247.19241 86.270271 246.43499 C 101.31048 244.64713 116.47854 247.42291 131.52536 245.59398 C 144.86849 245.10007 158.81979 243.30766 171.65987 247.87073 C 183.23908 254.30516 191.72195 265.24856 203.92784 270.70405 C 222.798 282.17235 240.78326 297.10377 263.22656 300.68555 C 286.10254 303.95959 311.05995 294.12389 324.06188 274.72179 C 332.9389 260.5418 330.85918 242.41149 324.85974 227.56459 C 317.45465 208.3568 302.17776 193.27247 295.94365 173.51345 C 289.33437 155.33404 293.84922 134.27583 306.01611 119.48653 C 312.63438 110.91359 321.64919 104.6516 331.11419 99.612039 C 367.40915 76.951771 407.403 60.264338 448.88089 49.86358 C 455.00477 48.672394 461.23776 47.957392 467.48242 48.023438 z M 63.376953 253.34766 C 63.163437 253.44302 63.089716 253.02634 63.376953 253.34766 z "
       inkscape:connector-curvature="0" />
    <path
       style="fill:#241c1c"
       id="path3744"
       d="m 150.27341,238.77669 c 0.20288,-8.11716 0.12072,-16.23809 0.10402,-24.35689 -0.0265,-5.76998 -0.0716,-11.53984 -0.0959,-17.30984 0.29752,-4.13738 -0.50039,-8.16914 -1.13041,-12.23007 -0.62561,-5.55042 -1.39679,-11.08264 -1.94186,-16.64229 -0.34242,-6.40433 -1.3035,-12.74283 -2.048,-19.10701 -0.0974,-0.95696 -0.19471,-1.91393 -0.29206,-2.8709 0,0 26.53193,-13.83294 26.53193,-13.83294 l 0,0 c 0.0813,0.94602 0.1625,1.89205 0.24376,2.83808 0.67427,6.39461 1.78497,12.73398 2.01432,19.16936 0.5363,5.49583 1.46085,10.92687 2.04515,16.41316 0.61161,4.20512 1.64834,8.363 1.30349,12.64487 -0.0243,5.80256 -0.0693,11.605 -0.0959,17.40754 -0.0166,8.08345 -0.10004,16.16912 0.10402,24.25089 0,0 -26.74261,13.62604 -26.74261,13.62604 z"
       inkscape:connector-curvature="0" />
    <text
       xml:space="preserve"
       style="font-style:normal;font-weight:normal;font-size:54.2209549px;line-height:125%;font-family:sans-serif;letter-spacing:0px;word-spacing:0px;fill:#000000;fill-opacity:1;stroke:none;stroke-width:1px;stroke-linecap:butt;stroke-linejoin:miter;stroke-opacity:1"
       x="86.302803"
       y="111.99523"
       id="text3746"
       sodipodi:linespacing="125%"
       transform="scale(0.88352258,1.131833)"><tspan
         sodipodi:role="line"
         id="tspan3748"
         x="86.302803"
         y="111.99523">Secure</tspan></text>
    <path
       style="fill:#000080"
       id="path3752"
       d="M 451.92578 525.12109 C 434.20341 524.65701 419.14378 535.34951 404.43837 543.77447 C 388.26995 551.10609 376.8455 567.5521 375.72084 585.27959 C 374.61298 600.45619 379.74672 616.22873 374.08214 630.94597 C 372.52391 636.89737 365.06811 636.75508 360.27696 635.43253 C 354.64011 633.54671 347.82964 632.89969 343.81836 628.04102 C 340.64958 623.9452 342.7044 618.58591 341.92542 614.04423 C 338.54878 605.50896 329.70016 601.19933 324.42308 594.05232 C 310.88429 580.5526 292.64749 572.66459 273.96289 569.53711 C 243.21638 562.98357 210.73788 562.56897 180.32133 571.02789 C 156.45584 578.53923 133.65098 594.11029 123.15761 617.49201 C 113.69066 639.72171 114.13328 664.33255 112.27897 687.99007 C 111.09888 721.98 117.81677 757.29454 137.28108 785.73989 C 152.15639 808.63108 173.24426 827.30337 184.98934 852.23033 C 190.87958 866.25011 190.52554 882.78379 183.45942 896.32035 C 177.20951 910.97773 171.19181 926.32902 171.63583 942.54406 C 171.03155 969.28556 182.78237 997.17524 205.50977 1012.2363 C 226.68275 1027.2217 250.78841 1038.6642 276.40993 1043.3378 C 305.16949 1048.339 334.34729 1042.5909 362.16211 1035.2188 C 402.3816 1024.4573 441.95498 1008.9318 483.99211 1007.1286 C 513.09673 1005.5588 541.59999 1012.7583 569.8503 1018.668 C 591.45855 1023.0142 614.20555 1024.9452 635.65625 1018.6875 C 662.1189 1011.6796 687.271 996.00756 701.69829 972.29408 C 712.27979 951.92499 708.6427 926.64392 696.96569 907.54915 C 679.41748 874.57645 649.46509 849.38715 635.82909 814.14855 C 627.4917 795.05728 632.30116 772.32994 644.39075 755.95361 C 654.01364 741.05773 666.03018 726.24808 667.48144 707.8636 C 669.85487 690.29866 670.74965 672.55792 671.50179 654.86803 C 671.40176 644.02861 667.30144 632.94955 658.7742 625.9371 C 647.03841 614.38397 633.16064 605.11162 618.63281 597.4707 C 597.34306 588.24393 572.4726 587.46429 553.5239 573.0142 C 535.16937 560.0292 521.69715 540.03662 500.05186 531.92279 C 484.83772 525.7694 468.13687 524.98388 451.92578 525.12109 z M 427.35156 541.52344 C 451.31656 543.29464 476.71443 545.41872 497.24964 559.17238 C 516.3359 572.59927 533.48492 590.28917 556.63867 596.57422 C 577.5095 602.24248 600.45369 603.82243 618.41602 617.04688 C 632.98922 627.13107 647.04922 641.05139 649.84091 659.32574 C 648.60985 684.91501 651.8737 711.47359 642.9684 736.0723 C 636.5074 753.84974 622.42579 767.67973 616.67606 785.78835 C 612.79211 796.3987 612.23873 808.04067 614.95687 818.99645 C 620.52373 846.01659 637.86352 868.28505 653.37542 890.35065 C 667.40795 910.3199 680.67772 932.41293 682.68953 957.2887 C 683.54823 976.06346 672.27818 996.16947 653.60619 1001.6289 C 630.57916 1008.8974 606.24991 1003.689 583.17203 999.49559 C 551.04379 993.2582 518.0404 985.82549 485.24745 991.50339 C 431.62185 999.50759 381.46637 1023.9556 326.97852 1027.2109 C 282.95691 1028.8391 237.85423 1009.7506 210.45779 974.86196 C 196.53965 953.90322 195.98834 926.68269 202.93301 903.15709 C 207.84392 886.60866 217.72364 870.61591 215.58398 852.73633 C 212.57662 831.84807 198.48513 815.13714 185.61779 799.31347 C 168.42117 778.74049 151.02347 756.75652 144.78341 730.08935 C 134.13837 689.50009 137.66889 646.1899 149.7953 606.34967 C 154.13923 594.45051 164.66196 583.94905 177.80859 583.13086 C 194.85548 580.79999 212.04311 583.32477 229.13472 583.55254 C 254.36114 585.75451 280.57382 592.72564 299.60352 610.29327 C 307.22831 618.08105 308.62258 629.41153 313.24023 638.8125 C 321.78207 650.96021 337.75123 654.66663 351.82654 654.26886 C 373.06748 653.47479 394.76399 640.35857 401.60547 619.58594 C 407.75612 598.88411 398.21763 576.44395 406.97867 556.21683 C 410.36075 548.17121 418.12687 540.96194 427.35156 541.52344 z "
       inkscape:connector-curvature="0" />
    <path
       style="fill:#241c1c"
       id="path3754"
       d="m 121.34083,775.40592 c -11.90486,3.62431 -39.639071,20.59265 5.72757,-5.34481 -4.86671,2.98135 -9.50741,6.29254 -14.37615,9.26988 -4.17957,2.46456 -7.19343,6.2355 -9.9355,10.14888 -2.73205,3.59925 -4.89271,7.55755 -6.635595,11.7159 -1.764486,3.86482 -2.761088,7.98185 -3.966074,12.03527 -1.212146,3.82968 -1.634183,7.81484 -1.87299,11.80379 -0.187685,4.18102 -0.13737,8.36731 -0.181876,12.55108 -0.04941,6.03488 -0.02679,12.07004 0.0027,18.10497 0.06042,0.91014 0.120837,1.82028 0.181256,2.73042 0,0 -26.545232,13.81188 -26.545232,13.81188 l 0,0 c -0.101511,-0.98397 -0.203021,-1.96793 -0.304532,-2.95189 0.02176,-6.02873 0.03269,-12.05772 -0.03613,-18.08621 -0.0551,-4.21934 -0.05767,-8.44048 0.05521,-12.65898 0.169808,-4.18441 0.453241,-8.38708 1.572587,-12.44427 1.192583,-4.11302 2.112638,-8.3222 3.877011,-12.24265 1.492399,-4.39819 3.587593,-8.65215 6.363508,-12.38459 2.750675,-4.09685 5.510217,-8.33246 9.520364,-11.32282 4.859112,-3.04707 9.683031,-6.10225 14.457369,-9.28122 15.204504,-8.86767 29.144334,-18.44152 45.785754,-23.85873 0,0 -23.68928,18.4041 -23.68928,18.4041 z"
       inkscape:connector-curvature="0" />
    <text
       xml:space="preserve"
       style="font-style:normal;font-weight:normal;font-size:40px;line-height:125%;font-family:sans-serif;letter-spacing:0px;word-spacing:0px;fill:#000000;fill-opacity:1;stroke:none;stroke-width:1px;stroke-linecap:butt;stroke-linejoin:miter;stroke-opacity:1"
       x="1.3414069e-07"
       y="912.96112"
       id="text3756"
       sodipodi:linespacing="125%"><tspan
         sodipodi:role="line"
         id="tspan3758"
         x="1.3414069e-07"
         y="912.96112">Insecure</tspan></text>
  </g>
</svg>
